#!OML:ASF H:\Terrain\Patient Classification 1\Walking\steve\steve.ASF
:FULLY-SPECIFIED
:DEGREES
201
root 7.39202 16.1382 10.533 9.69166 -11.8706 -7.31472
lowerback -2.8092 5.63997 9.06908
upperback -2.95973 7.36511 2.13235
thorax -0.664435 3.55918 -2.60086
lowerneck -9.68862 2.05554 -1.92899
upperneck 8.35189 3.26515 -2.22368
head 4.53124 1.42451 -0.180852
rclavicle -2.05556e-014 -1.51076e-014
rhumerus -2.73277 1.68232 -82.5203
rradius 45.7244
rwrist -18.68
rhand -34.1694 -79.7271
rfingers 7.12502
rthumb -7.34307 -250.42
lclavicle -2.05556e-014 -1.51076e-014
lhumerus -69.4514 21.039 51.3452
lradius 10.5403
lwrist -22.3457
lhand -12.4587 -7.82844
lfingers 7.12502
lthumb 13.6149 21.7063
rfemur 9.7705 2.10041 28.4984
rtibia 14.4328
rfoot 0.344216 23.6384
rtoes 15.5297
lfemur -41.5411 -1.26756 -8.68936
ltibia 18.3115
lfoot -21.7229 10.6152
ltoes -14.187
202
root 7.3915 16.0963 10.796 9.58716 -11.6566 -7.1025
lowerback -3.05825 5.59801 8.69245
upperback -2.91182 7.28483 2.05928
thorax -0.517935 3.53177 -2.44961
lowerneck -9.60184 1.89512 -2.05868
upperneck 8.08477 3.04375 -2.09983
head 4.41104 1.3231 -0.13328
rclavicle -6.645e-014 -4.92986e-014
rhumerus -2.78594 1.78405 -82.287
rradius 46.5931
rwrist -18.9142
rhand -33.9824 -80.9745
rfingers 7.12502
rthumb -7.16257 -249.167
lclavicle -6.645e-014 -4.92986e-014
lhumerus -70.2375 21.141 50.008
lradius 10.3619
lwrist -23.0757
lhand -11.9953 -8.31968
lfingers 7.12502
lthumb 14.0616 21.1846
rfemur 10.6582 2.29294 28.1793
rtibia 14.8148
rfoot 0.503365 23.4045
rtoes 13.3835
lfemur -41.6506 -0.098593 -10.1768
ltibia 19.3181
lfoot -19.7046 8.76507
ltoes -14.8854
203
root 7.39122 16.0433 11.0516 9.45261 -11.3024 -7.32665
lowerback -3.0241 5.52087 8.76012
upperback -2.93068 7.1866 2.09125
thorax -0.563411 3.47992 -2.46378
lowerneck -9.56614 1.75268 -2.09406
upperneck 8.00058 2.8377 -1.94275
head 4.36965 1.23033 -0.0886778
rclavicle -2.9504e-014 2.78299e-015
rhumerus -3.2232 2.05922 -81.987
rradius 47.7228
rwrist -19.3368
rhand -33.2656 -78.2838
rfingers 7.12502
rthumb -6.47062 -251.835
lclavicle -2.9504e-014 2.78299e-015
lhumerus -71.17 21.4466 47.9635
lradius 10.0591
lwrist -24.6798
lhand -10.9007 -8.31375
lfingers 7.12502
lthumb 15.1162 21.1142
rfemur 11.5696 2.80282 28.5088
rtibia 15.2476
rfoot 1.18679 22.5391
rtoes 14.2663
lfemur -41.9465 1.83511 -11.6825
ltibia 20.8536
lfoot -17.8357 6.0889
ltoes -15.5568
204
root 7.39175 16.002 11.3164 9.1719 -11.0721 -7.26942
lowerback -2.88752 5.47809 8.57307
upperback -2.96618 7.15224 1.99489
thorax -0.688801 3.45993 -2.48059
lowerneck -9.64126 1.67491 -2.02906
upperneck 8.18156 2.70631 -1.6955
head 4.44741 1.17721 -0.0239927
rclavicle 1.77493e-014 -4.01545e-014
rhumerus -3.80986 1.89619 -81.8394
rradius 48.7462
rwrist -19.6164
rhand -32.1338 -73.3538
rfingers 7.12502
rthumb -5.37787 -256.734
lclavicle 1.77493e-014 -4.01545e-014
lhumerus -71.3003 21.1188 47.7262
lradius 9.79755
lwrist -24.7929
lhand -10.3977 -7.50742
lfingers 7.12502
lthumb 15.6007 21.8834
rfemur 12.5419 3.61429 28.5676
rtibia 15.7963
rfoot 3.27034 21.079
rtoes 18.4241
lfemur -42.1077 2.77441 -12.8657
ltibia 22.763
lfoot -15.614 4.2902
ltoes -12.1284
205
root 7.38646 15.9962 11.5832 9.09081 -10.9668 -7.02774
lowerback -2.99914 5.47331 8.02084
upperback -3.04242 7.15027 1.88535
thorax -0.754378 3.46354 -2.2901
lowerneck -9.50549 1.55619 -1.99089
upperneck 8.06053 2.52207 -1.57322
head 4.37462 1.09683 -0.00404173
rclavicle 6.05082e-014 1.11319e-014
rhumerus -4.29568 1.6857 -81.7196
rradius 49.4061
rwrist -19.8006
rhand -30.6643 -67.5103
rfingers 7.12502
rthumb -3.95893 -262.547
lclavicle 6.05082e-014 1.11319e-014
lhumerus -71.4461 20.9129 47.5392
lradius 9.70453
lwrist -24.8229
lhand -10.4114 -6.61813
lfingers 7.12502
lthumb 15.5875 22.7738
rfemur 12.9246 4.28274 28.3058
rtibia 16.7823
rfoot 5.06156 19.8827
rtoes 18.5851
lfemur -42.3734 2.87562 -13.556
ltibia 24.6575
lfoot -12.8669 5.99543
ltoes -11.6726
206
root 7.38216 16.0039 11.8391 9.2161 -10.9789 -7.16017
lowerback -3.10469 5.48209 7.7705
upperback -3.1188 7.16144 1.88814
thorax -0.802737 3.47022 -2.14649
lowerneck -9.4261 1.52411 -1.99269
upperneck 7.85402 2.46122 -1.46708
head 4.28213 1.07578 0.0261749
rclavicle -4.05738e-014 1.41137e-014
rhumerus -4.83751 1.92894 -81.5806
rradius 50.0962
rwrist -20.2
rhand -29.2368 -60.8762
rfingers 7.12502
rthumb -2.58043 -269.16
lclavicle -4.05738e-014 1.41137e-014
lhumerus -71.4363 21.053 47.3488
lradius 9.33325
lwrist -24.8406
lhand -11.1601 -5.9209
lfingers 7.12502
lthumb 14.8663 23.5257
rfemur 12.6778 5.02304 28.4782
rtibia 18.2663
rfoot 6.13725 18.8869
rtoes 15.3078
lfemur -42.8355 2.72798 -13.3704
ltibia 26.3913
lfoot -11.0635 6.74628
ltoes -9.15925
207
root 7.3801 16.0026 12.0952 9.1702 -11.1171 -6.72116
lowerback -2.96501 5.4916 7.01515
upperback -3.26387 7.21173 1.67495
thorax -1.08535 3.4956 -1.97986
lowerneck -9.90786 1.50196 -2.03828
upperneck 8.38372 2.42748 -1.11834
head 4.5673 1.06587 0.158031
rclavicle 1.97551e-014 -1.07344e-014
rhumerus -5.82328 1.59852 -81.7477
rradius 51.0076
rwrist -20.056
rhand -27.7603 -54.6448
rfingers 7.12502
rthumb -1.15444 -444.621
lclavicle 1.97551e-014 -1.07344e-014
lhumerus -71.2264 21.1806 47.1275
lradius 8.65123
lwrist -24.9343
lhand -11.9777 -5.40522
lfingers 7.12502
lthumb 14.0785 24.0979
rfemur 12.3769 5.78262 28.0424
rtibia 20.1223
rfoot 7.52021 17.6239
rtoes 13.4287
lfemur -43.191 2.3858 -13.6409
ltibia 28.0898
lfoot -10.0344 6.7474
ltoes -2.12468
208
root 7.37912 15.9933 12.3592 9.17022 -11.1148 -6.11123
lowerback -2.94788 5.51696 6.206
upperback -3.5309 7.27384 1.35754
thorax -1.41931 3.52553 -1.88399
lowerneck -10.0341 1.36722 -2.09283
upperneck 9.12236 2.22081 -0.69199
head 4.35735 0.979032 0.273053
rclavicle -3.46056e-014 1.21259e-014
rhumerus -7.28567 0.924814 -81.9435
rradius 52.0775
rwrist -19.6307
rhand -26.5397 -50.4755
rfingers 7.12502
rthumb 0.0244521 -440.455
lclavicle -3.46056e-014 1.21259e-014
lhumerus -70.9066 21.031 46.9348
lradius 8.00724
lwrist -25.2188
lhand -11.7277 -4.47619
lfingers 7.12502
lthumb 14.3194 25.01
rfemur 11.8593 6.19808 27.3302
rtibia 22.2743
rfoot 9.4115 16.1428
rtoes 12.9541
lfemur -43.5819 2.30866 -14.397
ltibia 29.8997
lfoot -8.68571 6.87161
ltoes 2.32829
209
root 7.38841 15.9872 12.6315 9.16443 -11.191 -5.76195
lowerback -3.24884 5.64952 5.86602
upperback -3.57879 7.43177 1.08978
thorax -1.29447 3.61189 -1.9372
lowerneck -9.88739 1.21763 -2.01578
upperneck 8.56995 1.9832 -0.533705
head 4.62713 0.877535 0.322462
rclavicle 1.44072e-013 1.93815e-014
rhumerus -8.67338 0.373828 -81.9276
rradius 53.1845
rwrist -19.4637
rhand -26.4262 -48.2539
rfingers 7.12502
rthumb 0.134085 -438.234
lclavicle 1.44072e-013 1.93815e-014
lhumerus -70.2624 21.0453 46.9703
lradius 7.48205
lwrist -25.7241
lhand -11.3032 -4.00524
lfingers 7.12502
lthumb 14.7284 25.4515
rfemur 10.9857 6.52548 26.8103
rtibia 24.9446
rfoot 11.7706 14.3799
rtoes 13.7961
lfemur -43.7622 2.54037 -15.0783
ltibia 31.7274
lfoot -7.12608 7.39709
ltoes -1.42293
210
root 7.37353 15.9819 12.8907 8.97706 -10.7472 -5.24822
lowerback -3.52152 5.55167 5.08439
upperback -3.44964 7.29207 0.886461
thorax -1.0843 3.56348 -1.6923
lowerneck -10.0559 1.0546 -2.15177
upperneck 8.8661 1.74772 -0.159472
head 4.27951 0.778232 0.414019
rclavicle -7.42453e-014 -1.06847e-014
rhumerus -9.96689 -0.263405 -82.0097
rradius 54.3356
rwrist -19.2845
rhand -27.2841 -46.6635
rfingers 7.12502
rthumb -0.694501 -436.642
lclavicle -7.42453e-014 -1.06847e-014
lhumerus -69.4472 21.3752 47.0988
lradius 7.01505
lwrist -26.3266
lhand -11.4076 -4.0394
lfingers 7.12502
lthumb 14.6279 25.4247
rfemur 10.1164 6.16496 26.2012
rtibia 27.8057
rfoot 14.6996 11.7056
rtoes 16.8596
lfemur -43.9219 2.40914 -15.9619
ltibia 33.682
lfoot -6.2781 6.95754
ltoes -4.0451
211
root 7.35968 15.9936 13.1303 8.79994 -10.4092 -4.65817
lowerback -3.33605 5.37379 4.19897
upperback -3.48372 7.08651 0.640926
thorax -1.30636 3.47075 -1.49424
lowerneck -10.4185 0.913169 -2.33091
upperneck 9.13505 1.54283 0.324236
head 4.41839 0.696897 0.582077
rclavicle 8.81428e-014 2.52581e-014
rhumerus -11.417 -0.57371 -82.2966
rradius 55.3186
rwrist -19.1813
rhand -27.881 -46.479
rfingers 7.12502
rthumb -1.27094 -436.455
lclavicle 8.81428e-014 2.52581e-014
lhumerus -68.9243 21.7705 46.944
lradius 6.72982
lwrist -26.9859
lhand -11.2129 -3.09534
lfingers 7.12502
lthumb 14.8154 26.3551
rfemur 8.59834 5.78712 25.5116
rtibia 31.0572
rfoot 17.2016 9.95352
rtoes 12.7852
lfemur -44.0515 2.43214 -16.9304
ltibia 35.4467
lfoot -5.84939 5.71318
ltoes -0.992648
212
root 7.35828 15.9867 13.3697 8.64003 -10.133 -4.09011
lowerback -3.12394 5.20413 3.50499
upperback -3.56272 6.88505 0.393063
thorax -1.56439 3.37616 -1.40374
lowerneck -10.5173 0.852239 -2.47075
upperneck 9.2279 1.44243 0.705303
head 4.46041 0.664902 0.716528
rclavicle -2.5162e-014 -2.04748e-014
rhumerus -12.9083 -0.666051 -82.562
rradius 56.0543
rwrist -19.246
rhand -23.6704 -46.9081
rfingers 7.12502
rthumb 2.79568 -436.869
lclavicle -2.5162e-014 -2.04748e-014
lhumerus -68.5656 22.1414 46.7364
lradius 6.76525
lwrist -27.3953
lhand -11.1708 -2.13099
lfingers 7.12502
lthumb 14.8559 27.3164
rfemur 7.23809 5.76671 24.8217
rtibia 34.4635
rfoot 20.2729 6.78731
rtoes 17.419
lfemur -44.1114 2.55976 -17.9562
ltibia 37.0564
lfoot -5.50761 4.27298
ltoes 2.09118
